<?xml version="1.0" encoding="UTF-8" standalone="no"?>
<!-- Generator: Adobe Illustrator 17.1.0, SVG Export Plug-In . SVG Version: 6.00 Build 0)  -->

<svg
   xmlns:dc="http://purl.org/dc/elements/1.1/"
   xmlns:cc="http://creativecommons.org/ns#"
   xmlns:rdf="http://www.w3.org/1999/02/22-rdf-syntax-ns#"
   xmlns:svg="http://www.w3.org/2000/svg"
   xmlns="http://www.w3.org/2000/svg"
   xmlns:sodipodi="http://sodipodi.sourceforge.net/DTD/sodipodi-0.dtd"
   xmlns:inkscape="http://www.inkscape.org/namespaces/inkscape"
   version="1.1"
   id="Layer_1"
   x="0px"
   y="0px"
   viewBox="7.5 1.9 4096 4095.9999"
   enable-background="new 7.5 1.9 136 34.2"
   xml:space="preserve"
   sodipodi:docname="lvmh-logo.svg"
   width="4096"
   height="4096"
   inkscape:export-filename="G:\Users\suitedoalex\sites\lvmh-logo-0.png"
   inkscape:export-xdpi="96"
   inkscape:export-ydpi="96"
   inkscape:version="0.92.2 (5c3e80d, 2017-08-06)"><metadata
     id="metadata15"><rdf:RDF><cc:Work
         rdf:about=""><dc:format>image/svg+xml</dc:format><dc:type
           rdf:resource="http://purl.org/dc/dcmitype/StillImage" /><dc:title></dc:title></cc:Work></rdf:RDF></metadata><defs
     id="defs13" /><sodipodi:namedview
     pagecolor="#ffffff"
     bordercolor="#666666"
     borderopacity="1"
     objecttolerance="10"
     gridtolerance="10"
     guidetolerance="10"
     inkscape:pageopacity="0"
     inkscape:pageshadow="2"
     inkscape:window-width="1920"
     inkscape:window-height="1017"
     id="namedview11"
     showgrid="false"
     inkscape:zoom="0.10853569"
     inkscape:cx="1112.9177"
     inkscape:cy="901.65333"
     inkscape:window-x="-8"
     inkscape:window-y="-8"
     inkscape:window-maximized="1"
     inkscape:current-layer="Layer_1" /><path
     d="m 1082.4972,2226.8097 19.6566,4.9141 -68.7982,208.8516 H 426.45738 v -22.1137 h 29.48493 c 34.39909,0 51.59864,-9.8282 66.3411,-31.942 7.37125,-12.2854 12.28539,-41.7704 12.28539,-85.9977 v -523.3575 c 0,-49.1416 -4.91414,-81.0836 -17.19954,-93.3691 -14.74248,-17.1995 -36.85618,-27.0277 -68.79819,-27.0277 h -27.02785 v -19.6567 h 351.36212 v 19.6567 c -41.77031,0 -68.79817,2.4571 -85.99771,12.2854 -17.19954,7.3712 -27.02786,19.6566 -34.39909,31.942 -7.37123,12.2854 -9.82831,41.7703 -9.82831,88.4548 v 515.9863 c 0,31.942 2.45708,56.5128 9.82831,68.7982 4.91416,7.3712 12.28539,14.7424 22.1137,19.6566 9.82831,4.9142 49.14156,4.9142 100.74019,4.9142 h 49.14154 c 61.42695,0 103.19728,-4.9142 127.76805,-14.7425 24.57078,-9.8283 46.68448,-24.5707 68.79818,-49.1416 22.1137,-24.5707 41.7703,-56.5127 61.427,-108.1113"
     id="path2"
     style="fill:#000000;stroke-width:24.57077789"
     inkscape:connector-curvature="0"
     inkscape:export-filename="G:\Users\suitedoalex\sites\lvmh-logo-4.png"
     inkscape:export-xdpi="11.750617"
     inkscape:export-ydpi="11.750617" /><path
     d="m 1792.5927,1637.111 v 22.1138 c -27.0279,4.914 -39.3133,14.7424 -54.0558,27.0277 -19.6566,19.6568 -39.3133,49.1415 -54.0557,88.4549 l -277.6498,687.9817 h -24.5708 l -294.8493,-695.353 c -14.7425,-36.8561 -27.0279,-56.5127 -31.942,-66.3411 -9.8283,-12.2854 -22.1137,-22.1137 -36.8562,-29.4849 -14.7424,-7.3713 -24.57076,-12.2854 -49.14154,-12.2854 v -22.1137 h 304.67764 v 22.1137 c -36.8561,2.4571 -49.1415,9.8283 -58.9698,19.6566 -9.8284,9.8283 -17.1996,19.6567 -17.1996,34.3991 0,19.6566 9.8284,51.5986 27.0279,93.3689 l 201.4803,469.3019 189.195,-464.3877 c 17.1996,-46.6845 27.0279,-78.6265 27.0279,-95.826 0,-12.2854 -4.9142,-22.1138 -17.1995,-31.9421 -12.2855,-9.8282 -34.3991,-17.1995 -61.427,-22.1135 -2.4571,0 -4.9142,0 -9.8283,-2.4571 v -22.1138 z"
     id="path4"
     style="fill:#000000;stroke-width:24.57077789"
     inkscape:connector-curvature="0"
     inkscape:export-filename="G:\Users\suitedoalex\sites\lvmh-logo-4.png"
     inkscape:export-xdpi="11.750617"
     inkscape:export-ydpi="11.750617" /><path
     d="m 2291.3794,2440.5754 -302.2205,-668.3252 v 530.7288 c 0,49.1416 4.9142,78.6265 17.1995,90.9119 14.7426,17.1996 31.9421,24.5708 63.8841,24.5708 h 29.4849 v 22.1137 h -282.5639 v -22.1137 h 46.6845 c 34.3991,0 58.9698,-9.8282 71.2552,-29.485 9.8283,-12.2853 12.2854,-41.7703 12.2854,-85.9976 v -528.2717 c 0,-34.3991 -4.9141,-61.427 -12.2854,-76.1694 -4.9143,-12.2854 -14.7426,-19.6566 -29.4849,-29.4849 -14.7425,-7.3712 -34.3992,-12.2854 -66.3412,-12.2854 v -19.6567 h 208.8516 l 287.4782,629.012 285.021,-629.012 h 216.2227 v 22.1138 h -27.0277 c -34.3991,0 -54.0557,9.8282 -66.3411,29.4848 -9.8283,12.2854 -14.7424,41.7704 -14.7424,85.9977 v 528.2717 c 0,49.1416 4.9141,78.6265 17.1995,90.9119 14.7424,17.1996 34.3991,24.5708 66.3411,24.5708 h 22.1137 v 22.1137 h -324.3343 v -22.1137 h 24.5708 c 34.399,0 58.9699,-9.8282 71.2552,-29.485 9.8283,-12.2853 12.2854,-41.7703 12.2854,-85.9976 V 1764.879 l -307.1347,675.6964 z"
     id="path6"
     style="fill:#000000;stroke-width:24.57077789"
     inkscape:connector-curvature="0"
     inkscape:export-filename="G:\Users\suitedoalex\sites\lvmh-logo-4.png"
     inkscape:export-xdpi="11.750617"
     inkscape:export-ydpi="11.750617" /><path
     d="m 3097.3009,2005.6727 h 371.0188 v -228.5083 c 0,-41.7704 -2.457,-68.7982 -7.3712,-81.0836 -4.9142,-9.8283 -12.2854,-17.1995 -24.5709,-24.5707 -17.1995,-9.8282 -29.4848,-14.7425 -49.1414,-14.7425 h -27.028 v -19.6566 h 326.7915 v 22.1137 h -27.0279 c -19.6566,0 -31.942,4.9141 -46.6845,14.7424 -12.2853,7.3713 -22.1137,14.7425 -24.5709,29.485 -4.9141,12.2854 -7.3711,39.3133 -7.3711,78.6264 v 520.9006 c 0,41.7703 2.457,66.3411 7.3711,81.0836 4.9143,9.8282 12.2856,17.1995 24.5709,24.5708 17.1995,9.8282 31.9421,14.7424 49.1416,14.7424 h 27.0279 v 22.1138 h -326.7914 v -22.1138 h 27.0279 c 31.942,0 51.5985,-9.8283 66.341,-29.4849 9.8284,-12.2854 14.7425,-41.7704 14.7425,-90.9119 v -253.0789 h -373.4759 v 250.6218 c 0,41.7704 2.4572,66.3411 7.3713,81.0836 4.9141,9.8282 12.2854,17.1995 24.5707,24.5708 17.1995,9.8282 29.4851,14.7425 49.1416,14.7425 h 29.485 v 22.1137 h -321.8773 v -22.1137 h 27.0279 c 31.942,0 46.6844,-9.8283 63.884,-29.485 9.8283,-12.2854 14.7425,-41.7703 14.7425,-90.9119 v -523.3575 c 0,-41.7705 -2.4571,-68.7982 -7.3711,-81.0836 -4.9143,-9.8283 -12.2856,-17.1995 -24.571,-24.5707 -17.1995,-9.8283 -29.4848,-14.7425 -49.1415,-14.7425 h -27.0279 v -19.6567 h 324.3344 v 22.1138 h -29.485 c -19.6565,0 -31.9421,4.914 -46.6844,14.7424 -12.2855,7.3712 -19.6567,14.7425 -24.5709,29.485 -4.9142,12.2854 -7.3711,39.3132 -7.3711,78.6263 z"
     id="path8"
     style="fill:#000000;stroke-width:24.57077789"
     inkscape:connector-curvature="0"
     inkscape:export-filename="G:\Users\suitedoalex\sites\lvmh-logo-4.png"
     inkscape:export-xdpi="11.750617"
     inkscape:export-ydpi="11.750617" /></svg>