<svg id="ejedkPz4WT31" xmlns="http://www.w3.org/2000/svg" xmlns:xlink="http://www.w3.org/1999/xlink" viewBox="0 0 120.03255 149.39809" shape-rendering="geometricPrecision" text-rendering="geometricPrecision"><g transform="translate(.000001 0.000001)"><g transform="matrix(1.332034 0 0-1.069626-242.051072 159.719715)"><g><g clip-path="url(#ejedkPz4WT39)"><g><g transform="translate(248.788 81.257)"><path d="M0,0c-.278.096-.604.224-.848.2-.228-.022-.485-.053-.738-.054-.154-.001-.281-.006-.423.054-.132.056-.174.185-.304.266-.121.076-.289.056-.446.038-.228-.027-.238-.049-.45.066-.287.155-.488.199-.81.208-.331.009-.657.044-.741.414-.264.035-.533-.055-.794-.085-.398-.046-.426.106-.62.41-.122.192-.223.405-.434.513-.071.037-.112.077-.199.069-.102-.007-.108-.08-.169-.098-.138-.04-.316.049-.426-.053-.127.095-.492.08-.62.045-.188-.052-.356-.211-.574-.043.04.102.144.188.148.309c0,.037-.095.049-.104.1-.009.049.02.108.007.158-.075.277-.135.332-.37.423-.194.075-.4.119-.58.214-.194.101-.166.186-.262.369-.163.307-.758.516-1.07.432-.293-.079-.299-.143-.566.028-.261.167-.448.136-.734.181-.009.019-.011.039-.01.058-.338.183-.729.341-.999.617-.177.18-.327.409-.474.619-.284.401-.513.828-.789,1.226-.333.481-.736.937-1.111,1.387-.481.579-.942,1.189-1.45,1.744-.787.859-1.671,1.602-2.401,2.518-.707.885-1.54,1.659-2.267,2.526-.525.626-1.069,1.226-1.597,1.849-.327.386-.629.804-.985,1.16-.151.152-.319.278-.469.426-.415.415-1.036.638-1.43,1.071-.094.103-.126.24-.21.337-.091.106-.248.214-.365.288.025.019.07.111.093.13-.254.151-.272.391-.621.448.102.093.143.243.063.37-.096.153-.319.152-.479.21-.137.049-.276.144-.426.155.016.262-.184.46-.174.721-.124.034-.215.128-.349.157-.11.023-.231-.02-.33.047-.175.12-.089.411-.112.591-.111-.048-.287-.078-.413-.047-.17.041-.155.059-.276.198-.028.032-.096.033-.133.076-.042.049-.039.153-.078.19-.09.081-.199.075-.303.116-.065.024-.119.069-.174.093-.04.019-.055.086-.101.095-.157.028-.22-.165-.321-.229-.26-.168-.485.112-.149.266-.114.195-.215.245-.099.517.072.168.287.199.36.364.091.206-.158.39-.216.568-.092.279.098.192.186.423.054.138-.022.129-.082.264-.063.143-.065.117-.038.278.03.184.009.283,0,.469h-14.157v-31.923h45.602v5.358c-.059.023-.121.038-.224.04-.136.003-.236.02-.365.065" fill="#00853f"/></g></g><clipPath id="ejedkPz4WT39"><path d="M0,0h453.543v637.795h-453.543Z"/></clipPath></g></g><g transform="translate(226.626 103.822)"><path d="M0,0l-18.877-12.063L0,-24.182l18.878,12.119Z" fill="#fdbb30"/></g><g><g clip-path="url(#ejedkPz4WT326)"><g><g transform="translate(234.572 91.7555)"><path d="M0,0c0-4.408-3.573-7.98-7.98-7.98-4.408,0-7.981,3.572-7.981,7.98c0,4.407,3.573,7.98,7.981,7.98C-3.573,7.98,0,4.407,0,0" fill="#0081c6"/></g><g transform="translate(221.975 95.5886)"><path d="M0,0c-.836,0-1.659-.052-2.467-.153-.385-.74-.657-1.548-.795-2.401c1.057.199,2.148.304,3.262.304c4.623,0,8.827-1.791,11.957-4.717.327.766.538,1.592.611,2.459C9.152,-1.692,4.773,0,0,0" fill="#fff"/></g><g transform="translate(207.805 70.7985)"><path d="M0,0c-.072.896-.549,1.157-.954,1.157-.579,0-.896-.376-.896-1.027c0-1.778,3.643-2.632,3.643-5.466c0-1.721-1.157-2.675-2.834-2.675-1.663,0-2.617,1.33-2.69,2.892l1.707.246c.072-1.056.491-1.577,1.07-1.577.621,0,1.041.333,1.041.955c0,2.068-3.644,2.617-3.644,5.61c0,1.663,1.012,2.603,2.776,2.603c1.46,0,2.328-1.055,2.487-2.53Z"/></g><g transform="translate(211.449 65.5055)"><path d="M0,0c0-.781.232-1.157.955-1.157s.954.376.954,1.157v5.293c0,.781-.231,1.157-.954,1.157s-.955-.376-.955-1.157ZM-1.793,5.336c0,1.475.868,2.675,2.748,2.675c1.879,0,2.747-1.2,2.747-2.675v-5.379c0-1.475-.868-2.675-2.747-2.675-1.88,0-2.748,1.2-2.748,2.675Z"/></g><g transform="translate(218.852 70.7985)"><path d="M0,0c-.072.896-.549,1.157-.954,1.157-.579,0-.897-.376-.897-1.027c0-1.778,3.644-2.632,3.644-5.466c0-1.721-1.157-2.675-2.834-2.675-1.663,0-2.617,1.33-2.69,2.892l1.707.246c.072-1.056.491-1.577,1.07-1.577.621,0,1.041.333,1.041.955c0,2.068-3.644,2.617-3.644,5.61c0,1.663,1.012,2.603,2.776,2.603c1.461,0,2.328-1.055,2.488-2.53Z"/></g></g><clipPath id="ejedkPz4WT326"><path d="M0,0h453.543v637.795h-453.543Z"/></clipPath></g></g><g transform="translate(231.678 73.3724)"><path d="M0,0v-10.441h-1.562v8.156h-.029l-1.619-8.156h-.868l-1.62,8.156h-.028v-8.156h-1.562v10.441h2.357l1.272-6.103h.029L-2.357,0Z"/></g><g transform="translate(234.079 66.8069)"><path d="M0,0h1.446L0.737,4.483h-.028Zm-.579-3.875h-1.735L-0.39,6.565h2.226L3.76,-3.875h-1.736l-.318,2.314h-1.966Z"/></g><g transform="translate(238.518 71.8104)"><path d="M0,0h-1.735v1.562h5.264v-1.562h-1.736v-8.879h-1.793Z"/></g><g transform="translate(243.448 66.8069)"><path d="M0,0h1.446L0.738,4.483h-.029Zm-.578-3.875h-1.735L-0.39,6.565h2.227L3.76,-3.875h-1.736l-.317,2.314h-1.967Z"/></g><g transform="translate(206.157 55.2754)"><path d="M0,0h1.446L0.737,4.483h-.028Zm-.579-3.876h-1.734L-0.39,6.565h2.227L3.76,-3.876h-1.736l-.318,2.315h-1.966Z"/></g><g transform="translate(210.596 60.2787)"><path d="M0,0h-1.735v1.562h5.263v-1.562h-1.735v-8.879h-1.793Z"/></g><g transform="translate(214.515 51.3999)"><path d="M0,0v10.441h1.793v-8.879h2.819v-1.562Z"/></g><g transform="translate(221.122 55.2754)"><path d="M0,0h1.446L0.737,4.483h-.028Zm-.072,9.197h1.59L2.906,7.115h-1.33L0.723,8.402L-0.13,7.115h-1.331Zm-.506-13.073h-1.735L-0.39,6.565h2.227L3.76,-3.876h-1.736l-.318,2.315h-1.966Z"/></g><g transform="translate(224.766 51.3999)"><path d="M0,0v10.441h1.663L3.847,4.469h.028v5.972h1.62L5.495,0h-1.562L1.649,6.522h-.029L1.62,0Z"/></g><g transform="translate(232.17 60.2787)"><path d="M0,0h-1.735v1.562h5.264v-1.562h-1.736v-8.879h-1.793Z"/></g><path d="M235.698,51.4h1.793v10.441h-1.793Z"/><g><g clip-path="url(#ejedkPz4WT354)"><g><g transform="translate(241.931 58.3557)"><path d="M0,0v.81c0,.882-.406,1.258-.868,1.258-.723,0-.955-.376-.955-1.157v-5.293c0-.78.232-1.157.955-1.157.651,0,.868.377.868,1.056v1.258h1.793v-1.2c0-1.475-.868-2.675-2.661-2.675-1.88,0-2.747,1.2-2.747,2.675v5.379c0,1.476.867,2.675,2.747,2.675c1.793,0,2.661-1.301,2.661-2.863v-.766Z"/></g></g><clipPath id="ejedkPz4WT354"><path d="M0,0h453.543v637.795h-453.543Z"/></clipPath></g></g><g transform="translate(246.008 55.2754)"><path d="M0,0h1.446L0.737,4.483h-.028Zm-.578-3.876h-1.736L-0.39,6.565h2.226L3.76,-3.876h-1.736l-.318,2.315h-1.966Z"/></g></g></g></svg>
